<svg width="42" height="42" viewBox="0 0 42 42" fill="none" xmlns="http://www.w3.org/2000/svg">
<g id="Frame" clip-path="url(#clip0_657_331)">
<g id="Mask group">
<mask id="mask0_657_331" style="mask-type:luminance" maskUnits="userSpaceOnUse" x="0" y="0" width="42" height="42">
<g id="Group">
<path id="Vector" d="M42 21C42 9.40202 32.598 0 21 0C9.40202 0 0 9.40202 0 21C0 32.598 9.40202 42 21 42C32.598 42 42 32.598 42 21Z" fill="white"/>
</g>
</mask>
<g mask="url(#mask0_657_331)">
<g id="Group_2">
<path id="Vector_2" d="M42 0H0V42H42V0Z" fill="#EDD75A"/>
<path id="Vector_3" d="M10.5293 31.9788L37.1589 40.6313C40.8356 41.826 44.7847 39.8138 45.9794 36.137L54.6318 9.50745C55.8265 5.83068 53.8144 1.8816 50.1376 0.68694L23.508 -7.96554C19.8312 -9.16019 15.8821 -7.14804 14.6875 -3.47126L6.035 23.1583C4.84034 26.8351 6.8525 30.7842 10.5293 31.9788Z" fill="#0C8F8F"/>
<g id="Group_3">
<path id="Vector_4" d="M22.363 22.6577C24.8396 23.4622 27.149 23.1323 29.2913 21.6679" stroke="white" stroke-width="1.55556" stroke-linecap="round"/>
<path id="Vector_5" d="M18.8177 18.4201C18.7238 17.7856 18.2632 17.3287 17.7888 17.3996C17.3145 17.4704 17.006 18.0422 17.0999 18.6767C17.1938 19.3111 17.6544 19.768 18.1287 19.6972C18.6031 19.6264 18.9115 19.0546 18.8177 18.4201Z" fill="white"/>
<path id="Vector_6" d="M32.6815 16.4719C32.5877 15.8374 32.127 15.3805 31.6527 15.4513C31.1783 15.5222 30.8699 16.0939 30.9637 16.7284C31.0576 17.3629 31.5182 17.8198 31.9926 17.749C32.467 17.6781 32.7754 17.1063 32.6815 16.4719Z" fill="white"/>
</g>
</g>
</g>
</g>
</g>
<defs>
<clipPath id="clip0_657_331">
<rect width="42" height="42" fill="white"/>
</clipPath>
</defs>
</svg>
