<svg width="24" height="25" viewBox="0 0 24 25" fill="none" xmlns="http://www.w3.org/2000/svg">
<g id="Icons">
<path id="Vector" d="M18.0309 17.1168L22.3136 21.3995L20.8994 22.8137L16.6167 18.531C15.0768 19.763 13.1239 20.5 10.9999 20.5C6.03189 20.5 1.99989 16.468 1.99989 11.5C1.99989 6.532 6.03189 2.5 10.9999 2.5C15.9679 2.5 19.9999 6.532 19.9999 11.5C19.9999 13.624 19.2629 15.5769 18.0309 17.1168ZM16.0246 16.3748C17.2474 15.1146 17.9999 13.3956 17.9999 11.5C17.9999 7.6325 14.8674 4.5 10.9999 4.5C7.13239 4.5 3.99989 7.6325 3.99989 11.5C3.99989 15.3675 7.13239 18.5 10.9999 18.5C12.8955 18.5 14.6145 17.7475 15.8747 16.5247L16.0246 16.3748Z" fill="#434343"/>
</g>
</svg>
